<svg xmlns="http://www.w3.org/2000/svg" viewBox="0 0 256 256">
  <!-- 방패 배경 -->
  <path d="M128 16 L224 52 L224 128 Q224 196 128 240 Q32 196 32 128 L32 52 Z" fill="#0B0E14"/>
  <!-- 방패 테두리 -->
  <path d="M128 16 L224 52 L224 128 Q224 196 128 240 Q32 196 32 128 L32 52 Z" fill="none" stroke="#FF6B35" stroke-width="6"/>
  <!-- 방패 상단 하이라이트 -->
  <path d="M128 16 L224 52 L224 80 Q176 70 128 68 Q80 70 32 80 L32 52 Z" fill="#FF6B35" opacity="0.15"/>
  <!-- 시계 원 -->
  <circle cx="128" cy="138" r="72" fill="none" stroke="#FF6B35" stroke-width="5" opacity="0.9"/>
  <!-- 시계 눈금 (12,3,6,9시) -->
  <line x1="128" y1="70" x2="128" y2="82" stroke="#FF6B35" stroke-width="4" stroke-linecap="round"/>
  <line x1="128" y1="194" x2="128" y2="206" stroke="#FF6B35" stroke-width="4" stroke-linecap="round" opacity="0.6"/>
  <line x1="60" y1="138" x2="72" y2="138" stroke="#FF6B35" stroke-width="4" stroke-linecap="round" opacity="0.6"/>
  <line x1="184" y1="138" x2="196" y2="138" stroke="#FF6B35" stroke-width="4" stroke-linecap="round" opacity="0.6"/>
  <!-- 시침 (10시 방향) -->
  <line x1="128" y1="138" x2="100" y2="106" stroke="#FFFFFF" stroke-width="6" stroke-linecap="round"/>
  <!-- 분침 (2시 방향) -->
  <line x1="128" y1="138" x2="168" y2="110" stroke="#FF6B35" stroke-width="4" stroke-linecap="round"/>
  <!-- 중심점 -->
  <circle cx="128" cy="138" r="7" fill="#FF6B35"/>
  <circle cx="128" cy="138" r="3" fill="#FFFFFF"/>
</svg>
